<svg width="24" height="24" viewBox="0 0 24 24" fill="none" xmlns="http://www.w3.org/2000/svg">
  <path d="M7 18C5.17595 18.4117 4 19.0443 4 19.7537C4 20.9943 7.58172 22 12 22C16.4183 22 20 20.9943 20 19.7537C20 19.0443 18.8241 18.4117 17 18" stroke="currentColor" stroke-width="2" stroke-linecap="round"/>
  <path d="M9 11L6 14L9 17" stroke="currentColor" stroke-width="2" stroke-linecap="round" stroke-linejoin="round"/>
  <path d="M20 11H6" stroke="currentColor" stroke-width="2" stroke-linecap="round"/>
  <path d="M20 14C20 15.6569 18.6569 17 17 17C15.3431 17 14 15.6569 14 14C14 12.3431 15.3431 11 17 11C18.6569 11 20 12.3431 20 14Z" stroke="currentColor" stroke-width="2"/>
  <circle cx="9" cy="5" r="3" stroke="currentColor" stroke-width="2"/>
</svg>
